<svg xmlns="http://www.w3.org/2000/svg" xmlns:xlink="http://www.w3.org/1999/xlink" fill="none" version="1.1" width="32" height="32" viewBox="0 0 32 32"><defs><clipPath id="master_svg0_0_225"><rect x="0" y="0" width="32" height="32" rx="0"/></clipPath></defs><g clip-path="url(#master_svg0_0_225)"><g><path d="M6.80761,6.80761Q4.979131,8.63609,3.9895656,11.025120000000001Q3,13.41414,3,16Q3,18.585900000000002,3.9895659,20.9749Q4.979133,23.3639,6.80761,25.1924Q8.636099999999999,27.0209,11.025120000000001,28.0104Q13.41414,29,16,29Q18.585900000000002,29,20.9749,28.0104Q23.3639,27.0209,25.1924,25.1924Q27.0209,23.3639,28.0104,20.9749Q29,18.585900000000002,29,16Q29,13.41414,28.0104,11.025120000000001Q27.0209,8.63609,25.1924,6.80761Q23.3639,4.979131,20.9749,3.9895665Q18.585900000000002,3,16,3Q13.41414,3,11.025120000000001,3.9895662Q8.63609,4.979132,6.80761,6.80761ZM5.52379,12.64309Q5.66225,12.21315,5.83733,11.790479999999999Q6.67465,9.769,8.22183,8.22183Q9.769,6.67465,11.790479999999999,5.83733Q13.81196,5,16,5Q18.188000000000002,5,20.2095,5.83733Q22.231,6.67465,23.7782,8.22183Q25.3254,9.769,26.1627,11.790479999999999Q26.3378,12.21315,26.4762,12.64309L19.4499,14.725Q19.1841,13.99868,18.5927,13.40728Q17.5188,12.33333,16,12.33333Q14.4812,12.33333,13.40728,13.40728Q12.81588,13.99868,12.55015,14.725L5.52379,12.64309ZM5.08787,14.5999Q5,15.2912,5,16Q5,18.188000000000002,5.83733,20.2095Q6.67465,22.231,8.22183,23.7782Q9.76901,25.3254,11.790479999999999,26.1627Q13.34594,26.807,15,26.9555L15,19.5375Q14.1087,19.2942,13.40728,18.5927Q12.61602,17.8015,12.40774,16.768700000000003L5.08787,14.5999ZM17,19.5375L17,26.9555Q18.6541,26.807,20.2095,26.1627Q22.231,25.3254,23.7782,23.7782Q25.3254,22.231,26.1627,20.2095Q27,18.188000000000002,27,16Q27,15.2912,26.9121,14.5999L19.5923,16.768700000000003Q19.384,17.8015,18.5927,18.5927Q17.8913,19.2942,17,19.5375ZM14.3333,16Q14.3333,15.3096,14.8215,14.8215Q15.3096,14.3333,16,14.3333Q16.6904,14.3333,17.1785,14.8215Q17.6667,15.3096,17.6667,16Q17.6667,16.6904,17.1785,17.1785Q16.6904,17.6667,16,17.6667Q15.3096,17.6667,14.8215,17.1785Q14.3333,16.6904,14.3333,16Z" fill-rule="evenodd" fill="#030712" fill-opacity="0.699999988079071"/></g></g></svg>